<?xml version="1.0" encoding="UTF-8"?>
<svg fill="currentColor" id="flat-neko" xmlns="http://www.w3.org/2000/svg" viewBox="0 0 72 72">
  <path d="m68.24,44.97c.54-.13.86-.68.73-1.21m0,0c-.13-.54-.68-.86-1.21-.73l-4.61,1.15c1.06-5.18.9-11.77-1.14-20.18,0-7-1.45-14.23-3.24-14.91-1.99-.75-11.76,5.91-12.76,8.91-7-2-13-2-20,0-1-3-10.77-9.66-12.76-8.91-1.79.67-3.24,7.91-3.24,14.91-2.05,8.41-2.2,15-1.14,20.18l-4.61-1.15c-.54-.13-1.08.19-1.21.73-.13.54.19,1.08.73,1.21l5.64,1.41c.33,1.14.72,2.21,1.18,3.2l-4.67.42c-.55.05-.96.54-.91,1.09.05.52.48.91,1,.91.03,0,.06,0,.09,0l5.49-.5c.44.75.92,1.46,1.42,2.11l-4.32,1.44c-.52.17-.81.74-.63,1.26.14.42.53.68.95.68.1,0,.21-.02.32-.05l5.08-1.69c6.8,7.11,17.32,7.75,21.6,7.75s14.8-.63,21.6-7.75l5.08,1.69c.11.04.21.05.32.05.42,0,.81-.26.95-.68.17-.52-.11-1.09-.63-1.26l-4.32-1.44c.51-.66.98-1.36,1.42-2.11l5.49.5s.06,0,.09,0c.51,0,.95-.39,1-.91.05-.55-.36-1.04-.91-1.09l-4.67-.42c.45-.99.84-2.06,1.18-3.2l5.64-1.41m-47.24,1.03c-5-1-7-5-6-10,.81-4.04,4.59-7.63,9-7,4.39.63,6.81,4.04,6.64,8.74-.18,4.98-4.64,9.26-9.64,8.26Zm21.45,1.28c-.64.32-1.36.48-2.09.48-.67,0-1.36-.14-2.01-.41-.94-.39-1.74-1.01-2.35-1.83-.61.81-1.41,1.44-2.35,1.83-1.37.57-2.87.54-4.1-.07-.49-.25-.69-.85-.45-1.34.25-.49.85-.69,1.34-.45.7.35,1.61.36,2.44.02,1.01-.42,1.78-1.28,2.16-2.44.03-.09.08-.17.13-.25-.7-.31-1.18-1.01-1.18-1.82,0-1.1.9-2,2-2s2,.9,2,2c0,.81-.49,1.51-1.18,1.82.05.08.1.16.13.25.38,1.15,1.15,2.02,2.16,2.44.83.34,1.74.34,2.44-.02.49-.25,1.09-.05,1.34.45s.05,1.09-.45,1.34Zm8.55-1.28c-5,1-9.46-3.28-9.64-8.26-.17-4.71,2.25-8.11,6.64-8.74,4.41-.63,8.19,2.96,9,7,1,5-1,9-6,10Z"/>
  <path d="m26,33c-.55,0-1-.45-1-1,0-.45.3-.81.7-.94-.16-.09-.32-.19-.5-.25-2.2-.81-5.2.19-6.82,3.53-1.6,3.29-1.17,7.39,2.48,8.79,3.31,1.27,7.01-.77,7.53-4.63.35-2.62-.16-4.96-1.41-6.41-.04.51-.46.92-.98.92Z"/>
  <path d="m53.62,34.34c-.45-.93-1.02-1.66-1.64-2.24-.05.51-.46.9-.98.9-.55,0-1-.45-1-1,0-.4.24-.74.57-.9-1.27-.63-2.63-.72-3.78-.3-2.52.92-3.68,4.05-3.19,7.69.52,3.85,4.23,5.9,7.53,4.63,3.64-1.4,4.07-5.49,2.48-8.79Z"/>
</svg>